<svg id="Layer_1" data-name="Layer 1" xmlns="http://www.w3.org/2000/svg" viewBox="0 0 735 852"><defs><style>.cls-1{fill:orange;}.cls-2{fill:#ec7d22;}.cls-3{fill:#e6b35a;}.cls-4{fill:#fff;}</style></defs><title>blogdown</title><polygon class="cls-1" points="705.61 231.04 367.49 35.82 367.49 35.82 29.37 231.04 29.37 621.47 367.49 816.68 705.61 621.47 705.61 231.04"/><path class="cls-2" d="M734.91,637.38V213.13l-29.3-16.92L427.81,35.82,367.5,1,307.19,35.82,29.37,196.22.09,213.13V637.38l29.28,16.91L310.65,816.68l56.85,32.83,56.85-32.83L705.61,654.3ZM29.37,621.47V231L367.49,35.82h0L705.61,231V621.47L367.49,816.68Z"/><path class="cls-3" d="M367,633.9c.29-.29.61-.59.94-.89h-.26C367.49,633.31,367.26,633.61,367,633.9Z"/><path class="cls-4" d="M91.08,576.46c.28-4.55.56-11.32.56-17.25V478.48h12v41.95h.28c4.28-7.45,12-12.28,22.77-12.28,16.56,0,28.29,13.8,28.15,34.09,0,23.87-15,35.74-29.95,35.74-9.66,0-17.38-3.73-22.35-12.56h-.42l-.55,11Zm12.56-26.77a23.13,23.13,0,0,0,.55,4.41c2.35,8.42,9.39,14.22,18.22,14.22,12.7,0,20.29-10.35,20.29-25.67,0-13.39-6.9-24.84-19.88-24.84-8.28,0-16,5.66-18.49,14.9a24.39,24.39,0,0,0-.69,5Z"/><path class="cls-4" d="M165.74,478.48h12.14v98H165.74Z"/><path class="cls-4" d="M254.33,542.51c0,24.7-17.11,35.47-33.25,35.47-18.08,0-32-13.25-32-34.36,0-22.36,14.63-35.47,33.12-35.47C241.36,508.15,254.33,522.09,254.33,542.51Zm-53,.69c0,14.63,8.42,25.67,20.29,25.67,11.59,0,20.28-10.9,20.28-26,0-11.31-5.65-25.66-20-25.66S201.34,530.5,201.34,543.2Z"/><path class="cls-4" d="M322.78,509.67c-.27,4.83-.55,10.21-.55,18.35V566.8c0,15.32-3,24.7-9.52,30.5-6.49,6.07-15.87,8-24.29,8-8,0-16.84-1.93-22.22-5.52l3-9.24a37.72,37.72,0,0,0,19.59,5.24c12.42,0,21.53-6.49,21.53-23.32V565h-.27c-3.73,6.21-10.91,11.18-21.26,11.18-16.56,0-28.42-14.07-28.42-32.56,0-22.64,14.76-35.47,30.08-35.47,11.59,0,17.94,6.07,20.84,11.59h.27l.56-10.07ZM310.22,536a17.15,17.15,0,0,0-.69-5.53c-2.2-7-8.14-12.83-17-12.83-11.59,0-19.87,9.8-19.87,25.25,0,13.12,6.62,24,19.73,24a17.76,17.76,0,0,0,16.84-12.42,21.14,21.14,0,0,0,1-6.49Z"/><path class="cls-4" d="M395.64,478.48v80.73c0,5.93.14,12.7.56,17.25H385.29l-.55-11.59h-.27C380.74,572.32,372.6,578,361.7,578c-16.15,0-28.57-13.66-28.57-34-.14-22.22,13.66-35.88,29.95-35.88,10.21,0,17.11,4.83,20.14,10.21h.28V478.48ZM383.5,536.85a21.54,21.54,0,0,0-.55-5.1,17.87,17.87,0,0,0-17.53-14.08c-12.56,0-20,11-20,25.81,0,13.52,6.63,24.7,19.74,24.7,8.14,0,15.59-5.38,17.8-14.49a21.29,21.29,0,0,0,.55-5.24Z"/><path class="cls-4" d="M471.82,542.51c0,24.7-17.11,35.47-33.26,35.47-18.08,0-32-13.25-32-34.36,0-22.36,14.62-35.47,33.12-35.47C458.85,508.15,471.82,522.09,471.82,542.51Zm-53,.69c0,14.63,8.42,25.67,20.28,25.67,11.6,0,20.29-10.9,20.29-26,0-11.31-5.66-25.66-20-25.66S418.83,530.5,418.83,543.2Z"/><path class="cls-4" d="M486.59,509.67l8.83,33.95c1.93,7.45,3.72,14.35,5,21.25h.41c1.52-6.76,3.73-13.94,5.93-21.12l10.91-34.08h10.21l10.35,33.39c2.48,8,4.41,15.05,5.93,21.81h.42a199.7,199.7,0,0,1,5.1-21.67l9.52-33.53h12l-21.53,66.79h-11L528.4,544.58a220.1,220.1,0,0,1-5.93-21.94h-.28a200.29,200.29,0,0,1-6.07,22.08l-10.77,31.74h-11l-20.14-66.79Z"/><path class="cls-4" d="M578.91,527.75c0-6.91-.14-12.56-.55-18.08h10.76l.69,11h.28c3.31-6.35,11-12.56,22.08-12.56,9.24,0,23.59,5.52,23.59,28.43v39.88H623.62V538c0-10.77-4-19.74-15.46-19.74a17.25,17.25,0,0,0-16.28,12.42,17.53,17.53,0,0,0-.83,5.66v40.16H578.91Z"/><path class="cls-4" d="M365.53,797.29l4.47,4.5c1,1,1.89,1.91,2.72,2.88l.06,0c-.38-1.2-.69-2.52-1-3.84l-1.4-6.33,1.59-.93,4.67,4.28c1.12,1,2.06,2,2.91,2.87l.07,0a34.05,34.05,0,0,1-1.18-3.85l-1.56-6.12,1.88-1.09L381.48,802l-1.72,1-4.51-4.06c-1-1-1.95-1.81-2.93-2.89l0,0a35.14,35.14,0,0,1,1.06,4l1.21,5.95-1.73,1-9.24-8.62Z"/><path class="cls-4" d="M381.68,787.88l4.48,4.51c1,1,1.89,1.9,2.72,2.87l.06,0c-.38-1.19-.69-2.52-1-3.84l-1.39-6.33,1.59-.93,4.67,4.28c1.11,1,2.06,2,2.91,2.87l.07,0a34.9,34.9,0,0,1-1.18-3.86l-1.56-6.12,1.88-1.09,2.71,12.41-1.73,1-4.5-4.06a39.86,39.86,0,0,1-2.93-2.89l0,0a35.14,35.14,0,0,1,1.06,4l1.21,6-1.73,1L379.74,789Z"/><path class="cls-4" d="M397.84,778.47l4.48,4.51c1,1,1.89,1.9,2.72,2.87l.06,0c-.38-1.19-.69-2.52-1-3.84l-1.4-6.33,1.6-.93L409,779c1.11,1,2.06,2,2.91,2.87l.07,0a34.9,34.9,0,0,1-1.18-3.86l-1.56-6.12,1.87-1.09,2.72,12.42-1.73,1-4.5-4.06a39.86,39.86,0,0,1-2.93-2.89l0,0a37.35,37.35,0,0,1,1.06,4l1.21,6-1.73,1-9.24-8.62Z"/><path class="cls-4" d="M417.13,779.74a1.49,1.49,0,1,1,2.06.62A1.48,1.48,0,0,1,417.13,779.74Z"/><path class="cls-4" d="M418.52,770.8c-.72-1.23-1.36-2.28-2-3.21l1.67-1,1.25,2,.09,0a3.63,3.63,0,0,1,1.56-4,2.36,2.36,0,0,1,.58-.25l1,1.79a3.31,3.31,0,0,0-.68.31,3.09,3.09,0,0,0-1.13,3.93,6.84,6.84,0,0,0,.43.94l3.24,5.57L422.71,778Z"/><path class="cls-4" d="M428.38,772.09a5.68,5.68,0,0,0,2.94-.71c1.39-.8,1.63-1.87,1.13-2.74s-1.36-1.09-3.06-.78c-2.27.42-3.76-.1-4.49-1.36-1-1.68-.43-3.85,1.82-5.16a6,6,0,0,1,2.95-.85l.33,1.66a4.67,4.67,0,0,0-2.49.64,1.75,1.75,0,0,0-.92,2.44c.5.87,1.35.89,3,.62,2.21-.37,3.67,0,4.57,1.55,1.07,1.84.4,4-2.08,5.41a6.94,6.94,0,0,1-3.35,1Z"/><path class="cls-4" d="M432.78,754.11l1.75,3,2.72-1.58.84,1.44-2.72,1.59,3.28,5.63c.76,1.3,1.55,1.82,2.61,1.2a4.37,4.37,0,0,0,1-.77l.91,1.38a5.56,5.56,0,0,1-1.53,1.24,3,3,0,0,1-2.52.39,4.48,4.48,0,0,1-2.32-2.29l-3.32-5.7-1.62.94-.84-1.45,1.62-.94-1.46-2.5Z"/><path class="cls-4" d="M452.56,756.79c.63,1.08,1.21,2,1.75,2.8l-1.68,1-1.11-1.64,0,0a4.58,4.58,0,0,1-2.32,4c-1.65,1-4.14,1.19-6.28-2.48l-3.56-6.11,1.91-1.11,3.36,5.79c1.16,2,2.55,3,4.27,2a3.17,3.17,0,0,0,1.5-3.19,3.09,3.09,0,0,0-.39-1.07l-3.73-6.42,1.9-1.1Z"/><path class="cls-4" d="M457.48,737.21l7.36,12.64c.54.92,1.17,2,1.65,2.65l-1.7,1-1.14-1.77,0,0a4.47,4.47,0,0,1-2.37,4.13c-2.52,1.47-5.71.46-7.56-2.71-2.05-3.47-1.13-6.86,1.41-8.35a4.07,4.07,0,0,1,4.09-.24l0,0-3.63-6.24Zm3.42,10.24a4.37,4.37,0,0,0-.55-.75,3.25,3.25,0,0,0-4-.6c-2,1.14-2.13,3.55-.78,5.86,1.23,2.12,3.29,3.26,5.34,2.07a3.32,3.32,0,0,0,1.47-3.89,3.75,3.75,0,0,0-.4-.87Z"/><path class="cls-4" d="M463.88,736.08a1.36,1.36,0,0,1-2.35,1.38,1.35,1.35,0,0,1,.49-1.89A1.31,1.31,0,0,1,463.88,736.08Zm5.68,14.63-6.08-10.46,1.9-1.1,6.09,10.45Z"/><path class="cls-4" d="M481,736.94c2.25,3.87.55,7.11-2,8.59-2.83,1.64-6.22.84-8.14-2.47-2-3.5-.94-6.88,1.95-8.57S479.12,733.75,481,736.94Zm-8.24,4.94c1.34,2.29,3.66,3.25,5.52,2.17s2.18-3.56.81-5.91c-1-1.77-3.23-3.5-5.47-2.19S471.6,739.89,472.75,741.88Z"/><path class="cls-4" d="M484.85,740.3a1.47,1.47,0,0,1,.51-2.11,1.57,1.57,0,0,1,1.56,2.73A1.48,1.48,0,0,1,484.85,740.3Z"/><path class="cls-4" d="M497.66,733.83a8.2,8.2,0,0,1-2.65,2.35c-3.16,1.84-6.45.89-8.31-2.3a6.14,6.14,0,0,1,2.38-8.82,7.23,7.23,0,0,1,2.95-1l.42,1.72a5.12,5.12,0,0,0-2.49.79c-2.4,1.39-2.66,3.92-1.39,6.1,1.41,2.42,3.83,3,5.9,1.8a6.26,6.26,0,0,0,2-1.88Z"/><path class="cls-4" d="M506.35,722.17c2.25,3.87.55,7.12-2,8.59-2.83,1.64-6.22.84-8.15-2.47-2-3.49-.94-6.88,1.95-8.56S504.49,719,506.35,722.17Zm-8.23,4.94c1.33,2.29,3.65,3.25,5.51,2.17s2.18-3.56.81-5.91c-1-1.77-3.22-3.5-5.47-2.19S497,725.13,498.12,727.11Z"/><path class="cls-4" d="M507.4,718.46c-.63-1.07-1.16-2-1.73-2.77l1.66-1,1.07,1.63.07,0a4.15,4.15,0,0,1,2.16-3.83,3.59,3.59,0,0,1,4.18.37l0,0a4.8,4.8,0,0,1,.38-2,4.05,4.05,0,0,1,1.88-2.08c1.38-.81,4-1.09,6.07,2.53l3.59,6.16-1.86,1.08-3.45-5.92c-1.16-2-2.6-2.79-4.14-1.89a2.84,2.84,0,0,0-1.24,3,3.88,3.88,0,0,0,.4,1l3.76,6.46-1.85,1.08L514.74,716c-1-1.67-2.41-2.45-3.85-1.61a3,3,0,0,0-1.25,3.28,2.86,2.86,0,0,0,.39,1L513.7,725l-1.86,1.08Z"/><path class="cls-4" d="M325.87,351.52v11.23h47.92V351.52H354.74V308h19.45l36.49,54.73h22.05V351.52H418.3L387.42,306c15.84-4.61,26.06-15.43,26.06-32.48,0-22-18.44-31.07-38.29-31.07-10.22,0-20.65,2.4-30.88,2.4a79,79,0,0,1-18.44-2.4v10.62l16.44,2v96.43Zm28.87-96.43a188.52,188.52,0,0,1,20.65-1.4c14,0,25.06,6,25.06,21.25,0,13-9.82,22.85-35.28,22.45l-10.43-.2Z"/><path class="cls-2" d="M372.78,176a133.1,133.1,0,1,0,133.09,133.1A133.1,133.1,0,0,0,372.78,176Zm56.7,70.12a46.89,46.89,0,0,1,5,13.76,49.18,49.18,0,0,1,.9,9c0,.21,0,.28-.27.28h-11.4c-.22,0-.26-.07-.26-.28a35.82,35.82,0,0,0-20.85-32.25,35.09,35.09,0,0,0-9.13-2.79,35.91,35.91,0,0,0-5.58-.47c-.18,0-.22-.05-.22-.22V221.6c0-.16,0-.22.21-.22A47.75,47.75,0,0,1,429.48,246.08Zm-103.61,7V242.46a79,79,0,0,0,18.44,2.4c10.23,0,20.66-2.4,30.88-2.4,19.85,0,38.29,9,38.29,31.07,0,17.05-10.22,27.87-26.06,32.48l30.88,45.51h14.43v11.23H410.68L374.19,308H354.74v43.5h19.05v11.23H325.87V351.52h16.44V255.09Zm133.38,14.44v1.39c0,.16,0,.21-.2.21H447.59c-.21,0-.3,0-.29-.28s0-.64,0-1a4.56,4.56,0,0,1,0-.64c0-.75-.05-1.51-.11-2.25s-.13-1.59-.22-2.38-.2-1.83-.35-2.74-.34-2-.53-2.94c-.24-1.17-.52-2.33-.83-3.49-.45-1.65-1-3.29-1.56-4.88s-1.24-3.18-2-4.73-1.44-2.94-2.26-4.36a60.13,60.13,0,0,0-3.57-5.5c-.76-1-1.55-2.09-2.38-3-.62-.73-1.25-1.45-1.89-2.15-.86-.92-1.71-1.83-2.63-2.69s-1.73-1.61-2.64-2.38c-1.39-1.2-2.88-2.33-4.39-3.4s-2.83-1.9-4.29-2.79a46.1,46.1,0,0,0-4.38-2.31,60.66,60.66,0,0,0-7.9-3.08c-1.51-.47-3-.88-4.56-1.22s-3.09-.63-4.66-.84c-.95-.12-1.91-.25-2.86-.33l-1.86-.15c-.62,0-1.25-.06-1.87-.11a3.35,3.35,0,0,1-.63,0h-1.09c-.16,0-.2-.05-.19-.19a.17.17,0,0,0,0-.1V197.84c0-.25.07-.31.3-.29h1.34a2.91,2.91,0,0,0,.59,0c.64,0,1.28.06,1.92.09s1.1.06,1.65.1c.77.06,1.54.14,2.31.22s1.33.16,2,.26c.84.11,1.67.24,2.5.39s1.78.32,2.67.52q1.71.38,3.42.84c1.54.41,3.06.87,4.56,1.39s2.94,1.06,4.38,1.67c1.27.53,2.53,1.1,3.76,1.71,1.5.69,3,1.52,4.4,2.34a70.28,70.28,0,0,1,6.28,4.08c1.21.88,2.39,1.8,3.54,2.79.94.77,1.84,1.57,2.74,2.38.41.37.8.75,1.2,1.13s1,.94,1.46,1.43c.87.89,1.74,1.79,2.57,2.74,1.45,1.66,2.85,3.36,4.18,5.15,1,1.39,2,2.79,2.9,4.26.7,1.06,1.31,2.15,1.93,3.25s1.08,2,1.58,3a72.8,72.8,0,0,1,3.49,8.3c.6,1.74,1.14,3.51,1.61,5.29.39,1.52.75,3,1,4.57.2,1.11.39,2.22.55,3.33s.28,2.06.37,3.09c.08.78.14,1.56.2,2.34s.11,1.79.14,2.68A4.56,4.56,0,0,1,459.25,267.52Z"/><path class="cls-2" d="M400.45,274.94c0-15.24-11-21.25-25.06-21.25a188.52,188.52,0,0,0-20.65,1.4v42.1l10.43.2C390.63,297.79,400.45,288,400.45,274.94Z"/><path class="cls-4" d="M459.11,264.2c-.06-.78-.12-1.56-.2-2.34-.09-1-.22-2-.37-3.09s-.35-2.22-.55-3.33c-.29-1.53-.65-3.05-1-4.57-.47-1.78-1-3.55-1.61-5.29a72.8,72.8,0,0,0-3.49-8.3c-.5-1-1-2-1.58-3S449,232.1,448.34,231c-.92-1.47-1.88-2.87-2.9-4.26-1.33-1.79-2.73-3.49-4.18-5.15-.83-.95-1.7-1.85-2.57-2.74-.47-.49-1.07-1.06-1.46-1.43s-.79-.76-1.2-1.13c-.9-.81-1.8-1.61-2.74-2.38-1.15-1-2.33-1.91-3.54-2.79a70.28,70.28,0,0,0-6.28-4.08c-1.44-.82-2.9-1.65-4.4-2.34-1.23-.61-2.49-1.18-3.76-1.71-1.44-.61-2.87-1.15-4.38-1.67s-3-1-4.56-1.39q-1.71-.47-3.42-.84c-.89-.2-1.84-.38-2.67-.52s-1.66-.28-2.5-.39c-.66-.1-1.29-.18-2-.26s-1.54-.16-2.31-.22c-.55,0-1-.08-1.65-.1s-1.28-.09-1.92-.09a2.91,2.91,0,0,1-.59,0H388c-.23,0-.3,0-.3.29V209.2a.17.17,0,0,1,0,.1c0,.14,0,.19.19.19H389a3.35,3.35,0,0,0,.63,0c.62.05,1.25.07,1.87.11l1.86.15c.95.08,1.91.21,2.86.33,1.57.21,3.12.51,4.66.84s3.05.75,4.56,1.22a60.66,60.66,0,0,1,7.9,3.08,46.1,46.1,0,0,1,4.38,2.31c1.46.89,2.89,1.8,4.29,2.79s3,2.2,4.39,3.4c.91.77,1.73,1.52,2.64,2.38s1.77,1.77,2.63,2.69c.64.7,1.27,1.42,1.89,2.15.83.95,1.62,2,2.38,3a60.13,60.13,0,0,1,3.57,5.5c.82,1.42,1.53,2.81,2.26,4.36s1.38,3.13,2,4.73,1.11,3.23,1.56,4.88c.31,1.16.59,2.32.83,3.49.19,1,.38,2,.53,2.94s.26,1.83.35,2.74.16,1.63.22,2.38.08,1.5.11,2.25a4.56,4.56,0,0,0,0,.64c0,.32,0,.71,0,1s.08.28.29.28h11.46c.16,0,.2-.05.2-.21v-1.39a4.56,4.56,0,0,0,0-.64C459.22,266,459.17,265.09,459.11,264.2Z"/><path class="cls-4" d="M387.69,221.6v11.49c0,.17,0,.22.22.22a35.91,35.91,0,0,1,5.58.47,35.09,35.09,0,0,1,9.13,2.79,35.82,35.82,0,0,1,20.85,32.25c0,.21,0,.28.26.28h11.4c.23,0,.27-.07.27-.28a49.18,49.18,0,0,0-.9-9,46.89,46.89,0,0,0-5-13.76,47.75,47.75,0,0,0-41.58-24.7C387.69,221.38,387.69,221.44,387.69,221.6Z"/></svg>